# AST/ASF file generated using VICON BodyLanguage
# -----------------------------------------------
:version 1.10
:name VICON
:units
  mass 1.0
  length 0.45
  angle deg
:documentation
   .ast/.asf automatically generated from VICON data using
   VICON BodyBuilder and BodyLanguage model FoxedUp or BRILLIANT.MOD
:root
   order TX TY TZ RX RY RZ
   axis XYZ
   position 0 0 0  
   orientation 0 0 0 
:bonedata
  begin
     id 1 
     name lhipjoint
     direction 0.623529 -0.717805 0.309788 
     length 2.23224 
     axis 0 0 0  XYZ
  end
  begin
     id 2 
     name lfemur
     direction 0.34202 -0.939693 0  
     length 7.11402  
     axis 0 0 20  XYZ
    dof rx ry rz
    limits (-160.0 20.0)
           (-70.0 70.0)
           (-60.0 70.0)
  end
  begin
     id 3 
     name ltibia
     direction 0.34202 -0.939693 0   
     length 6.78496   
     axis 0 0 20   XYZ
    dof rx
    limits (-10.0 170.0)
  end
  begin
     id 4 
     name lfoot
     direction 0.125078 -0.343648 0.930732   
     length 1.84054   
     axis -90 7.62852e-016 20   XYZ
    dof rx rz
    limits (-45.0 90.0)
           (-70.0 20.0)
  end
  begin
     id 5 
     name ltoes
     direction 1.53565e-011 -4.21893e-011 1   
     length 0.916474   
     axis -90 7.62852e-016 20   XYZ
    dof rx
    limits (-90.0 20.0)
  end
  begin
     id 6 
     name rhipjoint
     direction -0.564688 -0.757748 0.327026   
     length 2.11457  
     axis 0 0 0  XYZ 
  end
  begin
     id 7 
     name rfemur
     direction -0.34202 -0.939693 0   
     length 7.14609   
     axis 0 0 -20   XYZ
    dof rx ry rz
    limits (-160.0 20.0)
           (-70.0 70.0)
           (-70.0 60.0)
  end
  begin
     id 8 
     name rtibia
     direction -0.34202 -0.939693 0   
     length 6.78101   
     axis 0 0 -20   XYZ
    dof rx
    limits (-10.0 170.0)
 end
 begin
     id 9 
     name rfoot
     direction -0.0992671 -0.272734 0.956955   
     length 1.96168  
     axis -90 -7.62852e-016 -20   XYZ
    dof rx rz
    limits (-45.0 90.0)
           (-20.0 70.0)
  end
  begin
     id 10 
     name rtoes
     direction -1.5356e-011 -4.21891e-011 1   
     length 0.982933   
     axis -90 -7.62852e-016 -20   XYZ
    dof rx
    limits (-90.0 20.0)
  end
  begin
     id 11 
     name lowerback
     direction -0.00596953 0.998668 0.0512524   
     length 1.87557   
     axis 0 0 0   XYZ
    dof rx ry rz
    limits (-20.0 45.0)
           (-30.0 30.0)
           (-30.0 30.0)
  end
  begin
     id 12 
     name upperback
     direction 0.00584879 0.999652 0.0257308   
     length 1.87883   
     axis 0 0 0   XYZ
    dof rx ry rz
    limits (-20.0 45.0)
           (-30.0 30.0)
           (-30.0 30.0)
  end
  begin
     id 13 
     name thorax
     direction 0.010104 0.999947 0.00178881   
     length 1.87779   
     axis 0 0 0   XYZ
    dof rx ry rz
    limits (-20.0 45.0)
           (-30.0 30.0)
           (-30.0 30.0)
  end
  begin
     id 14 
     name lowerneck
     direction 0.0120771 0.995934 -0.0892773   
     length 1.40897   
     axis 0 0 0   XYZ
    dof rx ry rz
    limits (-20.0 45.0)
           (-30.0 30.0)
           (-30.0 30.0)
  end
  begin
     id 15 
     name upperneck
     direction -0.030568 0.999465 -0.0116366   
     length 1.38661   
     axis 0 0 0   XYZ
    dof rx ry rz
    limits (-20.0 45.0)
           (-30.0 30.0)
           (-30.0 30.0)
  end
  begin
     id 16
     name head
     direction -0.0170715 0.999854 -0.00104426  
     length 1.47052  
     axis 0 0 0   XYZ
    dof rx ry rz
    limits (-20.0 45.0)
           (-30.0 30.0)
           (-30.0 30.0)
  end
  begin
     id 17 
     name lclavicle
     direction 0.977763 0.206143 0.038532  
     length 3.02424  
     axis 0 0 0   XYZ
    dof ry rz
    limits (-20.0 10.0)
           (0.0 20.0)
  end
  begin
     id 18 
     name lhumerus
     direction 1 -4.48965e-011 -2.62654e-027   
     length 4.68382   
     axis 180 -30 -90   XYZ
    dof rx ry rz
    limits (-60.0 90.0)
           (-90.0 90.0)
           (-90.0 90.0)
  end
  begin
     id 19
     name lradius
     direction 1 -4.48973e-011 -1.54954e-027   
     length 2.98124   
     axis 180 -30 -90   XYZ
    dof rx
    limits (-10.0 170.0)
  end
  begin
     id 20
     name lwrist
     direction 1 -4.48959e-011 7.20928e-028   
     length 1.49062   
     axis -5.52449e-016 90 90   XYZ
    dof ry
    limits (-180.0 0.0)
 end
  begin
     id 21 
     name lhand
     direction 1 -4.48971e-011 1.44186e-027   
     length 0.707595   
     axis -9.20027e-016 90 90   XYZ
    dof rx rz
    limits (-90.0 90.0)
           (-45.0 45.0)
  end
  begin
     id 22 
     name lfingers
     direction 1 -4.48985e-011 2.88371e-027   
     length 0.570481   
     axis -1.84005e-015 90 90   XYZ
    dof rx
    limits (0.0 90.0)
  end
  begin
     id 23
     name lthumb
     direction 0.707107 -6.34929e-011 0.707107   
     length 0.819101   
     axis -90 45 2.85299e-015   XYZ
    dof rx rz
    limits (-45.0 45.0)
           (-45.0 45.0)
  end
  begin
     id 24 
     name rclavicle
     direction -0.958661 0.284411 -0.00895327   
     length 3.11921  
     axis 0 0 0   XYZ 
    dof ry rz
    limits (-10.0 20.0)
           (-20.0 0.0)
  end
  begin
     id 25 
     name rhumerus
     direction -1 -4.48963e-011 -4.22193e-027  
     length 4.75876   
     axis 180 30 90   XYZ
    dof rx ry rz
    limits (-90.0 60.0)
           (-90.0 90.0)
           (-90.0 90.0)
  end
  begin
     id 26 
     name rradius
     direction -1 -4.48968e-011 -1.07616e-027   
     length 2.93293   
     axis 180 30 90   XYZ
    dof rx
    limits (-10.0 170.0)
  end
  begin
     id 27 
     name rwrist
     direction -1 -4.48965e-011 7.20928e-028   
     length 1.46647   
     axis -5.52449e-016 -90 -90   XYZ
    dof ry
    limits (-180.0 0.0)
  end
  begin
     id 28
     name rhand
     direction -1 -4.48971e-011 1.44186e-027   
     length 0.831748   
     axis -9.20027e-016 -90 -90   XYZ
    dof rx rz
    limits (-90.0 90.0)
           (-45.0 45.0)
  end
  begin
     id 29
     name rfingers
     direction -1 -4.48961e-011 2.88371e-027   
     length 0.670577   
     axis -1.84005e-015 -90 -90   XYZ
    dof rx
    limits (0.0 90.0)
  end
  begin
     id 30
     name rthumb
     direction -0.707107 -6.34929e-011 0.707107   
     length 0.962818   
     axis -90 -45 -2.85299e-015   XYZ
    dof rx rz
    limits (-45.0 45.0)
           (-45.0 45.0)
  end
:hierarchy
  begin
    root lhipjoint rhipjoint lowerback
    lhipjoint lfemur
    lfemur ltibia
    ltibia lfoot
    lfoot ltoes
    rhipjoint rfemur
    rfemur rtibia
    rtibia rfoot
    rfoot rtoes
    lowerback upperback
    upperback thorax
    thorax lowerneck lclavicle rclavicle
    lowerneck upperneck
    upperneck head
    lclavicle lhumerus
    lhumerus lradius
    lradius lwrist
    lwrist lhand lthumb
    lhand lfingers
    rclavicle rhumerus
    rhumerus rradius
    rradius rwrist
    rwrist rhand rthumb
    rhand rfingers
  end

#!OML:ASF E:\id_vita\Project 1\Capture day 1\Session 1\Female.ASF
:FULLY-SPECIFIED
:DEGREES
1
root -22.5628 16.1985 -5.75948 -178.765 -87.8325 -165.302
lowerback -12.4756 0.0561532 -2.1179
upperback -4.61929 0.132554 -0.158699
thorax 2.1466 -0.00548155 1.04417
lowerneck 2.74529 -4.96698 -11.9535
upperneck 3.26673 -7.37096 13.3488
head 1.44618 -3.78747 5.91178
rclavicle -4.72114e-015 5.1684e-015
rhumerus -30.1592 -18.0277 -86.6401
rradius 16.6675
rwrist 26.8396
rhand -15.4887 11.0097
rfingers 7.12502
rthumb 10.6933 -18.6982
lclavicle -4.72114e-015 5.1684e-015
lhumerus -34.5641 42.7072 67.5034
lradius 9.83091
lwrist -79.1062
lhand 3.95805 17.7436
lfingers 7.12502
lthumb 29.3757 45.4421
rfemur -21.0267 4.2391 21.0383
rtibia 23.912
rfoot -4.96395 -24.5053
rtoes -12.6369
lfemur -27.0081 -22.1161 -5.91797
ltibia 24.5142
lfoot -10.9983 22.4434
ltoes -4.988
2
root -22.5797 16.1999 -5.76072 -169.918 -87.529 -174.031
lowerback -12.8519 0.0895888 -2.4868
upperback -4.56102 0.231919 -0.221818
thorax 2.40507 0.0413507 1.20165
lowerneck 2.23455 -4.93423 -11.6394
upperneck 3.78882 -7.29416 12.8869
head 1.64506 -3.72756 5.69726
rclavicle -4.94477e-015 -1.23246e-014
rhumerus -30.0654 -17.9988 -86.6746
rradius 16.6525
rwrist 26.9186
rhand -15.6334 10.9611
rfingers 7.12502
rthumb 10.5538 -18.7539
lclavicle -4.94477e-015 -1.23246e-014
lhumerus -34.4358 42.8464 67.6166
lradius 9.74556
lwrist -79.3105
lhand 4.08399 17.9574
lfingers 7.12502
lthumb 29.4959 45.6348
rfemur -21.238 4.34435 20.6136
rtibia 24.1537
rfoot -5.2114 -24.4346
rtoes -12.6353
lfemur -26.9308 -23.2203 -5.96454
ltibia 24.1631
lfoot -10.6922 23.726
ltoes -4.80987
3
root -22.5753 16.2018 -5.76577 -166.286 -87.6014 -177.692
lowerback -12.7013 0.0154067 -2.71511
upperback -4.56052 0.158459 -0.221916
thorax 2.32522 0.00769726 1.31919
lowerneck 1.7378 -4.8224 -11.1589
upperneck 4.37365 -7.11379 12.351
head 1.83976 -3.6168 5.43753
rclavicle -8.69683e-017 2.08724e-014
rhumerus -30.1547 -17.7329 -86.7549
rradius 16.8472
rwrist 26.7597
rhand -15.6613 10.866
rfingers 7.12502
rthumb 10.5268 -18.8504
lclavicle -8.69683e-017 2.08724e-014
lhumerus -34.424 42.9324 67.6525
lradius 9.75495
lwrist -79.5049
lhand 4.43862 18.3495
lfingers 7.12502
lthumb 29.8344 45.9666
rfemur -21.1699 4.37242 20.4619
rtibia 23.9767
rfoot -5.09375 -24.4714
rtoes -12.3542
lfemur -26.954 -23.133 -6.12699
ltibia 24.1825
lfoot -10.7725 23.529
ltoes -4.64469
4
root -22.583 16.2032 -5.76102 -178.065 -87.5399 -165.856
lowerback -12.8183 0.0775008 -2.09979
upperback -4.54479 0.165473 -0.0904856
thorax 2.40866 0.00776429 1.11046
lowerneck 1.79626 -4.79771 -11.408
upperneck 4.45574 -7.10847 12.5732
head 1.86957 -3.61811 5.54903
rclavicle -3.52843e-015 -6.95746e-015
rhumerus -30.1505 -17.5633 -86.8482
rradius 16.9366
rwrist 26.7082
rhand -15.5665 10.8016
rfingers 7.12502
rthumb 10.6183 -18.9101
lclavicle -3.52843e-015 -6.95746e-015
lhumerus -34.5212 43.0239 67.5898
lradius 9.8274
lwrist -79.5838
lhand 4.52911 18.4627
lfingers 7.12502
lthumb 29.9207 46.0643
rfemur -21.1003 4.26304 21.0353
rtibia 23.807
rfoot -5.14345 -24.2766
rtoes -12.4041
lfemur -26.9155 -23.0061 -5.60358
ltibia 24.1729
lfoot -10.9585 23.5176
ltoes -4.33001
5
root -22.5735 16.2065 -5.76559 -176.265 -87.7279 -167.688
lowerback -12.5836 -0.0450608 -2.25147
upperback -4.558 0.0170761 -0.0776131
thorax 2.27223 -0.0627682 1.18763
lowerneck 1.15151 -4.68993 -10.8122
upperneck 5.1994 -6.92544 11.8928
head 2.12848 -3.5019 5.22196
rclavicle -4.50372e-015 1.33186e-014
rhumerus -29.9132 -17.6998 -86.9124
rradius 16.7464
rwrist 26.8921
rhand -15.6322 10.8574
rfingers 7.12502
rthumb 10.555 -18.8575
lclavicle -4.50372e-015 1.33186e-014
lhumerus -34.5609 43.1604 67.5433
lradius 9.88078
lwrist -79.7169
lhand 4.31208 18.213
lfingers 7.12502
lthumb 29.7136 45.8518
rfemur -20.9768 4.72254 20.8903
rtibia 23.6015
rfoot -4.93901 -24.8141
rtoes -11.81
lfemur -26.8919 -22.0802 -5.95644
ltibia 24.1902
lfoot -11.108 22.4219
ltoes -5.06601
6
root -22.5923 16.2127 -5.76255 -181.171 -87.4048 -162.78
lowerback -12.8447 0.0697022 -1.90845
upperback -4.46513 0.134781 -0.0216212
thorax 2.50829 -0.00792982 1.06995
lowerneck 1.19152 -4.7811 -11.1195
upperneck 5.28558 -7.07062 12.0679
head 2.18076 -3.57837 5.32181
rclavicle 6.70898e-016 -1.31198e-014
rhumerus -29.6075 -18.2277 -86.8524
rradius 16.4126
rwrist 27.4081
rhand -15.8246 10.9432
rfingers 7.12502
rthumb 10.3693 -18.7811
lclavicle 6.70898e-016 -1.31198e-014
lhumerus -34.5903 43.2509 67.5504
lradius 9.94925
lwrist -79.9132
lhand 4.11056 17.9697
lfingers 7.12502
lthumb 29.5212 45.6426
rfemur -20.7651 5.1641 21.0667
rtibia 23.3376
rfoot -4.75515 -24.8773
rtoes -12.0448
lfemur -26.6877 -22.317 -5.72725
ltibia 24.2828
lfoot -11.0938 23.0394
ltoes -4.77717
7
root -22.5998 16.2149 -5.75821 -180.891 -87.2647 -163.012
lowerback -12.9689 0.10712 -1.85111
upperback -4.43072 0.179396 0.0094838
thorax 2.6103 0.0130886 1.07697
lowerneck 1.04322 -4.7472 -11.1977
upperneck 5.58297 -7.04298 12.1418
head 2.29419 -3.56027 5.35275
rclavicle 4.16205e-016 -1.82882e-014
rhumerus -29.4524 -18.6081 -86.7312
rradius 16.2
rwrist 27.8476
rhand -16.0461 11.111
rfingers 7.12502
rthumb 10.1557 -18.6239
lclavicle 4.16205e-016 -1.82882e-014
lhumerus -34.6371 43.3471 67.6132
lradius 9.9633
lwrist -80.0247
lhand 4.0445 18.1222
lfingers 7.12502
lthumb 29.4582 45.8062
rfemur -20.7169 5.18397 21.0386
rtibia 23.1317
rfoot -4.6207 -24.6855
rtoes -12.3042
lfemur -26.7546 -22.7524 -5.58741
ltibia 24.3459
lfoot -10.9323 23.5968
ltoes -4.82505
8
root -22.6033 16.211 -5.75966 -183.373 -87.1845 -160.511
lowerback -12.989 0.145315 -1.69809
upperback -4.42405 0.210191 0.0465592
thorax 2.62812 0.027914 1.03395
lowerneck 0.790042 -4.66005 -10.9101
upperneck 6.01704 -6.93009 11.9353
head 2.43312 -3.49367 5.23608
rclavicle -5.06901e-015 -1.25234e-014
rhumerus -29.458 -18.9596 -86.6033
rradius 16.1246
rwrist 28.2242
rhand -16.1452 11.3415
rfingers 7.12502
rthumb 10.0601 -18.3981
lclavicle -5.06901e-015 -1.25234e-014
lhumerus -34.6082 43.3834 67.6821
lradius 9.8976
lwrist -80.062
lhand 3.96378 18.523
lfingers 7.12502
lthumb 29.3811 46.2205
rfemur -20.6012 5.22272 21.1926
rtibia 22.8813
rfoot -4.49601 -24.554
rtoes -12.4572
lfemur -26.8633 -22.994 -5.32303
ltibia 24.4665
lfoot -11.0626 23.9415
ltoes -4.31792
9
root -22.6055 16.2052 -5.75461 -185.689 -87.0982 -158.246
lowerback -12.9161 0.153447 -1.52041
upperback -4.40687 0.19673 0.121881
thorax 2.60786 0.021772 1.00996
lowerneck 0.411681 -4.58011 -10.459
upperneck 6.58999 -6.80302 11.3798
head 2.61676 -3.41828 4.98093
rclavicle -9.93923e-016 5.96354e-015
rhumerus -29.4363 -19.1052 -86.4797
rradius 16.0546
rwrist 28.4921
rhand -16.13 11.4402
rfingers 7.12502
rthumb 10.0747 -18.2986
lclavicle -9.93923e-016 5.96354e-015
lhumerus -34.6672 43.5456 67.7278
lradius 9.85883
lwrist -80.1046
lhand 4.21946 19.1463
lfingers 7.12502
lthumb 29.6252 46.8008
rfemur -20.4164 5.05186 21.374
rtibia 22.7416
rfoot -4.42548 -24.3372
rtoes -13.0188
lfemur -26.7994 -22.9703 -5.22061
ltibia 24.5089
lfoot -11.2395 24.0063
ltoes -3.90369
10
root -22.6145 16.2001 -5.77064 -185.379 -87.1251 -158.588
lowerback -12.8868 0.0606415 -1.82576
upperback -4.44092 0.105677 0.231172
thorax 2.55707 -0.0217353 1.28246
lowerneck -0.165257 -4.42838 -9.9254
upperneck 7.51741 -6.59194 10.7765
head 2.92678 -3.29638 4.69591
rclavicle -3.66199e-015 1.55052e-014
rhumerus -29.5383 -18.9358 -86.453
rradius 16.0802
rwrist 28.4773
rhand -16.1747 11.4008
rfingers 7.12502
rthumb 10.0316 -18.3401
lclavicle -3.66199e-015 1.55052e-014
lhumerus -34.8992 43.6692 67.6556
lradius 9.85275
lwrist -80.0901
lhand 2.5173 18.5874
lfingers 7.12502
lthumb 27.9992 46.5189
rfemur -20.197 5.31565 21.3475
rtibia 22.5248
rfoot -4.20118 -24.6264
rtoes -12.979
lfemur -26.7704 -22.5744 -5.34155
ltibia 24.6033
lfoot -11.3606 23.6164
ltoes -3.93055
11
root -22.6169 16.2002 -5.76544 -177.022 -87.1635 -166.797
lowerback -13.0761 -9.93437e-005 -2.17133
upperback -4.43318 0.0745283 0.113584
thorax 2.66717 -0.0387522 1.35069
lowerneck -0.06673 -4.40479 -10.3024
upperneck 7.49787 -6.58998 11.1484
head 2.92765 -3.29959 4.87645
rclavicle -6.13748e-015 -8.54774e-015
rhumerus -29.4739 -18.8689 -86.5396
rradius 16.1482
rwrist 28.4642
rhand -16.1769 11.3179
rfingers 7.12502
rthumb 10.0295 -18.4231
lclavicle -6.13748e-015 -8.54774e-015
lhumerus -34.8586 43.8049 67.737
lradius 9.80833
lwrist -80.0163
lhand 4.15725 19.8163
lfingers 7.12502
lthumb 29.5658 47.4813
rfemur -20.2786 5.16989 20.8739
rtibia 22.37
rfoot -4.23274 -24.5412
rtoes -12.8315
lfemur -26.9298 -22.5103 -5.76857
ltibia 24.6239
lfoot -11.2984 23.5594
ltoes -4.16105
12
root -22.6247 16.2023 -5.77755 -183.222 -87.1204 -160.74
lowerback -12.9608 -0.0149905 -2.01173
upperback -4.36466 0.0339924 0.226808
thorax 2.67864 -0.0573184 1.37246
lowerneck -0.613017 -4.24494 -9.78508
upperneck 8.20924 -6.36347 10.6898
head 3.17455 -3.16877 4.64339
rclavicle -4.01297e-015 9.34288e-015
rhumerus -29.4573 -18.8782 -86.6184
rradius 16.1743
rwrist 28.4998
rhand -16.1585 11.2615
rfingers 7.12502
rthumb 10.0472 -18.4786
lclavicle -4.01297e-015 9.34288e-015
lhumerus -34.8928 43.8832 67.6946
lradius 9.75635
lwrist -80.0238
lhand 0.909122 18.1758
lfingers 7.12502
lthumb 26.4609 46.3485
rfemur -20.0268 5.42559 21.2221
rtibia 22.2375
rfoot -4.26386 -24.6963
rtoes -12.4087
lfemur -26.6203 -22.1989 -5.58292
ltibia 24.5943
lfoot -11.4453 23.2953
ltoes -4.56618
